/* XPM */
static char *out[] = {
/* columns rows colors chars-per-pixel */
"64 64 52 1 ",
"  c #F90402",
". c #F40A03",
"X c #EC1504",
"o c #EA1A06",
"O c #F01508",
"+ c #DE3307",
"@ c #D6350A",
"# c #D93C09",
"$ c #E52305",
"% c #EA2C19",
"& c #F32727",
"* c #E93422",
"= c #E83A2C",
"- c #BC640A",
"; c #C84F07",
": c #C7530E",
"> c #C5590B",
", c #EB4D4F",
"< c #75B644",
"1 c #AB840B",
"2 c #AF8D0F",
"3 c #B0850E",
"4 c #B69910",
"5 c #95AD0A",
"6 c #9DA90C",
"7 c #97B10B",
"8 c #99B50C",
"9 c #9DBC0E",
"0 c #9CBE13",
"q c #94B91D",
"w c #A7AA0F",
"e c #ADA90E",
"r c #A3B50F",
"t c #A1BE0E",
"y c #A3B510",
"u c #A2BC10",
"i c #AABB11",
"p c #92BC30",
"a c #9EC10F",
"s c #9FC210",
"d c #9FC21D",
"f c #A3C30F",
"g c #A9C60E",
"h c #A7C80F",
"j c #A9C90F",
"k c #A3C510",
"l c #A9C610",
"z c #A6C811",
"x c #ABCA11",
"c c #B1CE11",
"v c #B3D012",
"b c #8ABF41",
/* pixels */
"9skxt9kkkkkkxzzkzzhzhsssssssskkkff9fsssssskzkkkzfkzxtkafksssszkf",
"sskk9assskzkzkkkzksasssssssskkhflf0ksssssskkkskzkkzxzxvtasssssaa",
"sszkkkfasssskzkskkssssssssskkkkzxf9kskksssskksaskkkkkkxx9sssssss",
"sskkkk89sssssksssssssszazssssssafszxakfassssssssskkkzkzz9sssssss",
"sskkzzkfsssssssssssa9ffkhkssssssssxfkf8fsssssfksssskzzk9asssssss",
"asskkkk9ssss999asskfazzzffasssssskkkx9xxkksssfkssssfkkasssskssak",
"9fakskt9sss98888akkkkzkxa99ssssssszkfffgkasks9kssssasasssssk9fax",
"zj989a8ksssssss99skskhxzfz9aaaaaaszkka988skxxkksss909999askfhfkf",
"kf9aa9aas0aasssaskkzkzkkz889888889skkzkkssxxkkkss8888888askkkkzk",
"aa98788888akzzzssskkzxsaafsa98899akkkxxkksxxkkkks8888889sssfskks",
"sfa997898aashzhzfssssskf8assssassszzkkcgks9tksksssaaaaffskx9kass",
"khassssaaakkshjhjsssssssaasass8assfzxk89ssstk89ksssfssk9akkzlask",
"fasksskzffhfzkaf8asssssaf9ffkk99ssafvfsa9afs98cksssxffkfkzkxaak9",
"skzzkshkh9hhhhf8aassssaffflfkkx9ksss9sssa9kkktxksssszazkkklfaksk",
"kkzjzfkkh9fhhfja8sssssskkkkkfzzzxsssaassaafxlkkksssskkkkkszkasss",
"azzhzakkh9a9h99fksssssskkksskkkf9aa99aaalxkkxxzksasaa9999a9aasss",
"9hjhhtfhffaa9jkxxksxkssssssskaaaa9888s9fvxzzkzz9888888888788aass",
"affff9fjfaaafkxzzkkxzsxss9azf9aaa088889afxkzzkk9888888888888aass",
"a9898aa99aatkszzzkkzkzcskk8ha7afz878888kxzkkkks0saa9888ffffkzzzz",
"kafaskk99a999szzhkkkkkkkkxfafazzg888887skkksssssss888tfhffhfzxjx",
"fkkkkzhf88888afzhaahkksskxzfkszktft8889ssssssskks98878trxxffkfxk",
"kkktzkz88888889aaa99aksszvxzzkkkglt888ssssskkkkkk8878888zfa9k9ax",
"kxk9kkxl88888tja9fffasssszzkkkszff8899999akkzkhxxa8875599988kk9a",
"fkl8tlgft8788jjafffhfassssskksssa9af98888fkzzkzxxa97555888a9kksa",
"kka888998h979hzafhjzhassssssaafsk00kkss0skzxzkklaa875579ffkzkssk",
"kass988jghgfazkkfzhzksssassafxkf0<pkksskkkkfxxfaass9aaakhfzkfkkk",
"kass9aafhhhhskksskzkssaakkkaffzkqbd0zksskxx89a99askffassaxfkahft",
"asssffffffffkskssssssfaffkaaxkzk0zksfkssax99ssksa99fzxassafkafa8",
"assskzzzhhssaa898889a9ffss09x9lsk9afsassssaaf9sskvxtkkkskaa99fss",
"kksssskkkkksa8888889safaskkkktsk0yr099ssskkkkckssxkxkkkssa9ffsxz",
"zkssssssssssasaaassssa9fzlleeyku3XX188ssskkkxczsa9fkkksss88zhzzz",
"kkksasssssssss9fkasss9aa9l:.-@trO  Xtsssssf9kkk889fkzzzssazfzxkk",
"kkssa89888assff9kkssssf9fr+.$>yu=,&oi0fassk9ssskxzzkzkzssa9kkzkk",
"ssss988889assaazkkkksss0fr#..$682*%4kkssskxassssk99kkzzssakzhfk9",
"sssssassfassss98akfkssssfaw>;-578iilkkkksssssssssflkkxkassskkkks",
"ssssksszkkskssaahkzkssssssaaas98tgxlkxkkskskkkssa888899tfkksssss",
"sszhzkkzzkkzksas9fffsssk9akkssssf9kkkxlklkkfkzsa8775779ffkkkssss",
"skzzfskcchkzxxckazzssk9kkxkkfkkkkkk9ccz9kxkxxzza875788akxkkkssss",
"sfsxasxkzsszxksssskauakttgzkfzxfxks9fkk0fkkxxcxs909aaassfkfksssk",
"azhsssssssssssssskfftkgfkfxz9xffkskassaattkgtfksssafsskkkskssskx",
"kf8akssssssssssskkkkkzkkftff898988888asaaafk9sfkksffkkkfkkkssszk",
"zfxjkkssssssssssssskfsskaaa8888887889kzhkssskaakkaxzzukkfxsssszk",
"faa989sssssasfaskzfl9sskhaaa8888880aaszjhhassfkk09hkkakkakssskkz",
"kka9ssssssxaszffkkxfsakkfaassasskkakkhzfhffa99ksafazssas99890ssk",
"kxzzkssssskxazfkzxfaskffaasskkfakkahhkjfaf8aafkkkkkkssss88889ssk",
"kfxxsssssskkkkskkkk9sskssskzzhhazzf9hzfjf99aakkffffkskssss9aaskk",
"xfa9aaaaassksssssassssssssshzjhazzha9ff9ffkssk9l9ffaa9afsk9sssfx",
"c9s8888889ssssssksskkssssaajjjh8hzffa9ajfjxfkxkskssfztfffkffsssa",
"0a9887888ssssfkzkkkzhkkkss9f9j9a9j9sssszzzzkkzfzxsskkkkkkkxffsss",
"faa998889a9sazzkkkkzxxxkskk9aaaaf9assssszzzkkkkzzkskksskkzkk9fss",
"sssssaa88888fzkxzkkkzcfssskskskzhksssaakxkkskkkkksssssskkaasssss",
"ssssskkasaaaaa9xzkak9kxskzkkkkzkxss88889sssaaakksssss9axk9askaas",
"akkzkkxv9asss9zzks8kf8kshxszzszzxksa9988aa9898fasssssk8kk8kkx9as",
"akzzzzkfaa088askk99kkaakkzkxxsxkzxaaaa8jhatjah9asssskvhakkkzfssk",
"kzzxzzxv887779sska9kssssssszzskcfjf9aafhh9fjhhfssssskxxzkkzkkkkt",
"kzxkkxxtaa9989a9kkkkssfkksssssskf9ff9afhhahjhkhsssssszxhzkkkzfak",
"zzkxx9aassssa98zkxkkkkkkssssaaa9gjfzh9azzfkzjzkssssssssa80akssss",
"zx8kft9ssssss888gfkfffthassssaaa8gjkzhakkskkzksssssssss8778sssss",
"xf8ka8898899s888ttk8t89taassss89ffhkkkfkkk0kksssssssssss99aaasss",
"x8sss8878888987889887789aasssshjjjffkksskaassssssss9988ss8779sss",
"sasssss99999aa88878789a999ssszskzzzkssssssss9l99as98789sk989akf9",
"sssssssssss88sssa99sasssssssazkskkzzkssssssktxfk9ssss9ssk9klfxtk",
"sssssssskzksskszskzsssssssssszsassssssssskcxxkkk8as9ssslkgxlkkkf",
"xtskkskxxxxszxxzkxzxsssssssskfkzzassssssskxcxxkzfsxvg9kkkzkkkkxl"
};
