/* XPM */
static char *out[] = {
/* columns rows colors chars-per-pixel */
"64 64 182 2 ",
"   c #251C0D",
".  c #281F0E",
"X  c #271E10",
"o  c #281F10",
"O  c #2A210F",
"+  c #2C2312",
"@  c #312614",
"#  c #352916",
"$  c #3A2C17",
"%  c #302718",
"&  c #352B19",
"*  c #3B2E19",
"=  c #3E311B",
"-  c #382F20",
";  c #3C3322",
":  c #3F3628",
">  c #402F19",
",  c #42331C",
"<  c #443621",
"1  c #463923",
"2  c #493B24",
"3  c #403728",
"4  c #443C2C",
"5  c #4A3E29",
"6  c #4A412D",
"7  c #4D482C",
"8  c #585826",
"9  c #55512D",
"0  c #5B5B2B",
"q  c #4C4433",
"w  c #4F4834",
"e  c #4F4738",
"r  c #504736",
"t  c #514A35",
"y  c #504738",
"u  c #544B3B",
"i  c #584F3E",
"p  c #565430",
"a  c #5A523E",
"s  c #605F35",
"d  c #62662B",
"f  c #646A2B",
"g  c #6D702E",
"h  c #717C23",
"j  c #717B28",
"k  c #646537",
"l  c #696C30",
"z  c #65643A",
"x  c #656838",
"c  c #6B6C3D",
"v  c #73783A",
"b  c #574F41",
"n  c #584F41",
"m  c #575041",
"M  c #5C5444",
"N  c #5F5847",
"B  c #5E5649",
"V  c #5F5849",
"C  c #605746",
"Z  c #625C46",
"A  c #625B4B",
"S  c #685E4E",
"D  c #675F50",
"F  c #666243",
"G  c #696643",
"H  c #6B6B41",
"J  c #67614C",
"K  c #6A644D",
"L  c #787A4B",
"P  c #676050",
"I  c #6B6354",
"U  c #6F6857",
"Y  c #6F6758",
"T  c #6F6859",
"R  c #726B56",
"E  c #746C5C",
"W  c #786F5F",
"Q  c #797753",
"!  c #77705E",
"~  c #79725E",
"^  c #7C795A",
"/  c #776F60",
"(  c #786F60",
")  c #777060",
"_  c #7B7363",
"`  c #7F7867",
"'  c #807766",
"]  c #817A66",
"[  c #857C6C",
"{  c #887F6E",
"}  c #7A8B15",
"|  c #78881F",
" . c #7E911A",
".. c #768421",
"X. c #7A8A22",
"o. c #7E8B2B",
"O. c #7A8336",
"+. c #79803B",
"@. c #83971B",
"#. c #869C1A",
"$. c #8B9F1F",
"%. c #97B10E",
"&. c #99B50D",
"*. c #9DBD0E",
"=. c #89A213",
"-. c #8CA31B",
";. c #8FA919",
":. c #92AC14",
">. c #93AC1E",
",. c #98AF19",
"<. c #96B213",
"1. c #99B613",
"2. c #9DBD14",
"3. c #96B31B",
"4. c #99B41B",
"5. c #9EBC1A",
"6. c #A1BE0E",
"7. c #A1BF19",
"8. c #839623",
"9. c #869826",
"0. c #8A9C23",
"q. c #83932C",
"w. c #848E32",
"e. c #889731",
"r. c #899639",
"t. c #8EA422",
"y. c #95AB23",
"u. c #93A42F",
"i. c #95AA2C",
"p. c #95B020",
"a. c #9BB423",
"s. c #9EB923",
"d. c #97B028",
"f. c #9BB32A",
"g. c #9AAD34",
"h. c #96A53D",
"j. c #9CB332",
"k. c #9FB03D",
"l. c #A2BE23",
"z. c #9EC10F",
"x. c #9FC210",
"c. c #A3C20F",
"v. c #A8C40F",
"b. c #AACA0F",
"n. c #A3C511",
"m. c #A8C711",
"M. c #A6C811",
"N. c #AAC911",
"B. c #A6C41A",
"V. c #B6D213",
"C. c #838A43",
"Z. c #888F4B",
"A. c #8C9649",
"S. c #919A4C",
"D. c #878952",
"F. c #8B8C5C",
"G. c #93945D",
"H. c #979C5D",
"J. c #98A547",
"K. c #99A746",
"L. c #9DA25D",
"P. c #A1B143",
"I. c #8A8667",
"U. c #8E8D63",
"Y. c #87806B",
"T. c #89816E",
"R. c #969A62",
"E. c #97986A",
"W. c #878070",
"Q. c #8C8373",
"!. c #8E8870",
"~. c #8E8678",
"^. c #908777",
"/. c #918A76",
"(. c #908778",
"). c #948B7C",
"_. c #969374",
"`. c #9A9775",
"'. c #98907C",
"]. c #979080",
"[. c #9C9483",
"{. c #A1988A",
/* pixels */
"M.n.n.M.M.c.x.z.n.x.n.n.n.x.n.n.x.5.R.).W.` Q.Q.Q._ T (.).` [ ~.).Q.).{ _ / K F.!.Q.Q.!.`.H.f.x.B.x.M.M.n.M.M.M.b.b.z.x.x.x.x.x.",
"n.M.n.c.*.&.x.x.z.x.x.n.n.x.x.l.s.S.[ W.W.[ [ [ ` V A [ W.W.W.Q.[ [ [ _ ) P N [ W.[ [ [ ~.).).R.5.x.M.x.x.M.M.M.M.c.z.x.z.x.x.z.",
"M.M.M.M.M.x.x.x.x.x.z.x.x.K.`.[.).` _ T ) ) _ _ T u m T ` ` W.` [ [ _ ) Y M N ) [ ' Y.Y.Y.Q.[ _ A.x.x.x.n.M.M.n.M.z.z.x.x.x.x.x.",
"n.n.M.c.c.c.x.x.x.x.z.2.K.].).].].~.` I P E ) T i 3 3 m B D P E ) ) / E A u N W _ [ [ W.Y.Q._ D Q x.x.x.z.n.n.z.z.z.z.x.x.z.x.x.",
"z.x.z.M.z.&.z.z.x.*.1.y.!.).(.Q.W.[ [ I 6 b m q : & O + % & % - 4 q q e b 3 q Y ) ) _ _ _ _ ) V x 2.x.x.x.x.z.z.x.x.x.x.x.M.z.c.",
"*.*.z.z.c.z.z.z.x.x.x.d.Q.Y.Y.Q.W.` _ P % & +                   X X     + % & q m P ) ) ) ) T M ` !.E.J.s.x.z.z.z.x.x.x.n.M.c.c.",
"&.&.z.z.z.x.x.s.j.j.s.i.[ { [ ) ) ) E q +               O   X               X + & : u U E P u I ).).).!.E.>.&.&.&.*.x.x.n.M.c.M.",
"z.*.&.*.&.&.i._.).~.Y.[ V P E E T P b -                 +                         O & : u e q ! W.).~.Q.Y.u.%.%.&.*.x.z.z.z.c.M.",
"z.&.&.%.%.,.F.Y.T.Y.[ ) V 4 e y e : &       O O         +     X + X                     + % : T ) Q.Q.[ [ F.4.&.z.z.x.x.N.z.n.z.",
"*.z.2.x.x.j.Y.Y.[ Y.) E u %   O             & + O X O X X X + + + + %   +                 O % M E ) ' [ [ Y.J.B.M.z.x.n.c.M.N.*.",
"z.z.n.x.f._.(.~.` ! T B 4 +               % + + + O + X X + # & @ & # % + O +       O       O % y A E _ [ [ I.a.M.*.c.M.n.M.v.z.",
"n.n.n.2.U.Y.W.Y._ I i 4 %               O + % & + O + + + O & < # $ $ % % + O       %           % 4 M E _ ) R e.n.c.n.M.M.c.z.n.",
"M.b.n.x.Q ` Y.` E B : +       O + + O   O # & $ % + + + +   % * # $ $ # @ O +       @ + + O         : M U S +.4.B.x.n.M.M.N.c.z.",
"N.b.M.x.0.a J I P u -       + + + + + + + # = $ % + + + % X # * = $ , > & + + @     # & # @ + O     X # u E ] Q D.r.4.x.c.n.z.x.",
"M.M.M.x.p.w ; ; 4 ; O     + % + # % + + + & = $ # % & + + & < $ , = , , & % + + O   & = = @ % # X     O N ] [ _ / P O.<.*.*.z.x.",
"M.B.l.S._ T m 6 & +     O & + & * @ % + O & $ $ $ * * % + & * > , $ 2 , $ @ + @ O   & $ = & & $ + X X   : T W.Q.[ ) J 0.%.&.*.z.",
"n.B.`.'.^._ W A e -     % $ @ # $ @ & + + # * , $ = $ @ & * > , = = 1 , $ # % % O O = , < = $ = + +       6 ` ].[ ` ) G ;.&.*.n.",
"&.a.'.{.)./.' E M : . . $ $ @ # $ @ & + + # * , , $ $ # & % @ , < = , , $ & $ $ + O = , < = = $ & %     X + I [ ~.{ ) A 8.n.M.M.",
"n.s.Q.{ { Q.Q.[ D :   . * , $ , > % # #   # * , , , * # % % @ , < = 1 , $ # $ # + + @ , < 1 = = & @   X   X B ` ~.[ / V j n.M.M.",
"n.7.I.Y.{ _ / / S < . @ > , , , , , * + O # * 2 , * $ * # O . 1 1 ; , = $ $ $ $ + + @ = 2 < = = $ % + %   X m ` ~._ / B d 2.c.n.",
"n.5.U.Y.{ ' E S n ; o o > , 2 , < = * % O # * < , , > * > O O 2 , * 6 = = $ # * % O @ = < < < < $ # # +   O u _ [ _ E M k 1.M.*.",
"n.1.R.[ { ' _ W D ;   o > , 1 , , = # + + + * < , > , > $ O @ , , , < , = $ # $ % + @ = < < = , $ % = + O   e _ [ ) T m a %.c.M.",
"m.<.C.Y ` ` _ / C -   + , 2 2 , < = # +   & , < , , , > @ O O > < 1 1 , $ $ $ $ @ O # , , , = , = @ # + O   e / ) E V e s <.M.M.",
"*.%.w.Z i N N M 4 @   + , 1 2 , < = # + O & , < , > > > $ O @ , 2 , 1 , * = $ $ @ O @ , = & = , = @ # + O   : Y P B y 7 @.c.z.z.",
"6.K.).~ D M u q - o   + , 2 , , < , & + O * = , = $ , = $ . @ , , 1 1 , # = $ $ $ o # , , * < , , $ * @ .   - D ` Y B a q.n.n.n.",
"5.I.).).~._ I M q +   + 2 , , , < = # +   = , , , ; , $ $ O O , , , , , & $ = $ $ . @ , , , , , , # $ @ + o n { ).].` E Z ;.n.n.",
"s.Y.Q.Q.~._ E A e # o % 2 2 , $ $ , # +   & , , < < , $ @ O O , 7 , , = & * * = $ + # , , , 1 , , * $ % @ . S ' _ Y ) E Z $.x.N.",
"d.{ { { { ) / A u # o # , 6 , , $ , # + . & , , , 1 * * O O @ > , 2 , = < * < $ # . @ , , , 1 , = $ $ % @ o I { [ { [ / A -.2.x.",
"d.Y.T.{ [ _ ( E e + O # , 1 , , , , @ + . * < < , , = # + . O , 2 5 , , * * = * # O @ , < < 2 , , * $ # + + E Q.].~.Q._ J $.b.n.",
"5.F.Q.).(.Q.Q.E 3 + + * < , , , , > # @   , , 1 , , $ # &   O , , , , , = * $ # # . @ , < , , > = * * & @ % E { Q.Q.' ) J 0.n.c.",
"n.i.) ' [ [ [ I - +   & < , 2 , , > # O   * , 5 , , * * #   @ > , < < < , = < = @ . # , < 1 2 , 1 * * $ + % E { Q.{ ) / I t.c.N.",
"n.3.J N M S Y : % + + * < < 2 , , $ # O + = = 1 < * , * % . O , < < , < 2 , * * $ O @ , 2 , < > * * $ & + + W { Q.[ ) / J 8.N.N.",
"x.y.K V q : & % O   + # , 1 1 < , > @ + + * < , * * > $ % . % , < 2 * , , , = * $ % # , 2 < , > * * $ $ % + E [ [ ' / I u h n.M.",
"x.5.^ A m q 6 - + + + # , 1 2 , , $ @ + % = , , , , , $ % . $ 2 5 1 , , < < , = $ @ # < 1 < > 1 < < % $ + + I ' Y._ I B q 0 2.n.",
"x.x.Z.E V B B m : & & * , 2 , , , , # O @ $ , 2 1 , , $ @   # , 2 1 = < 2 2 = = $ + $ , 2 2 > , 2 , % $ # + A _ ` E M q 4 7 2.n.",
"x.x.d.` E / E P u : & = < , , , , $ # O @ , 2 2 5 , , $ .   $ , , < * , 5 2 = # $ o > 1 1 < 1 , 1 * @ $ & + m E / N q q q ..2.x.",
"n.M.g.Y.' ) E A m ; % = , , , > , * # . @ > < < 2 , 2 $ +   * , , , = < 2 , , $ @ . $ 2 1 2 , > 1 , % $ * + % C D V B B Z >.2.z.",
"M.f.T.Y.Q.[ W B M ; & = 2 , $ = $ * + . @ = , , 2 , 1 * . X ; , , , = , 2 , , $ @ . $ 1 2 , , , , , # $ , + + M _ ` / V N k 1.z.",
"n.g.] Q.W.[ E V u ; & , , , $ * # + .   * = 1 , < , < = + X # , < , * , , # & $ @   > , 2 , , , < , # $ # + + u [ { { ` Y a | x.",
"M.g.Y.Y.[ [ E V m ; = , < , = = # % % . & , , , < < , = +   $ , 1 , , , , & * # # . $ , , , , , < , * * # % O i [ { { Y.` P d x.",
"6.g.Q.{ ] [ W C u ; * < < = = , $ # # O & > , , * , , * @   * , < , 1 , & # $ $ # o $ , , , , 1 < , , $ % + + i ` [ { Q.' E t <.",
"c.k./.{ { { ' I e ; = 1 1 , 1 < * # +   & , , , - < , * @ . , , < , , , * $ $ & + X # > 1 > > $ < , < $ @ + + r [ [ [ { _ E t #.",
"n.h.] ' [ _ Y N 6 & = 5 < 1 < = & + + O > , 7 , , 1 , * o   > , 1 , , , , * * @ o   $ , , , * & < , , $ # # + q _ { { { ) E a @.",
"&.y.Q.{ [ ` / D q % = 1 , < < , $ # O   $ , 2 6 , 2 , $ o   > , 1 , * < < * $ #     $ , < * & * , 2 < $ $ + o 4 ( { (.Q.' R w @.",
"z.x.G.~.Q._ W D q # * < , , , , $ @ O O > , , , , 1 , * o o > > 1 , $ < < * $ + .   & , < , 2 * , , 5 * $ +   ; I [ Y.[ E a 9 :.",
"N.M.h.Y.` ) E M 3 + = 1 < = 2 , = & + O > , , 5 1 2 , $   . , * 2 , & * 1 $ * % +   * < < , 2 * * 2 2 * # .   : Y W P a u g ,.x.",
"V.N.u.! T I D u & # , < < , , 2 = # + + = , , 2 , , > $   @ , * = , # = 1 $ * $ +   * , < , , $ $ 2 , * $ o o 3 W Q.Q.Q.[ ] L 3.",
"2.f.I.W E T T V 3 * , , 2 < , , $ # O @ = , 2 2 , , * %   + = $ = * $ , < $ * * + o * < < < < * = 2 , * & o   4 ( ).'.Q._ I M | ",
"2.R.[ ] _ ` ) I q * , < < , , > = @   @ = , < 6 , = $ # . + > $ $ = = , = * = $ + O $ , , , < = = , , * # X   4 _ ).~._ / B q } ",
"a.Q.[ { Q.Q.) Y 4 & 2 < 2 , 2 * # @   @ = 2 < < , 2 , & + O , $ = , , , = $ & $ @   # , , = , , * , = , #     q ) { ' ` / A q =.",
"j./.Y.[ ) ) / P 4 # < < 2 , , , # @ O @ = 2 , , < 2 , = + O = * = > , < , * $ $ @   # > = = , , > $ $ $ #   O q ) W.).[ ) S e ;.",
"j.).Q.[ ` ) E A ; $ , , < , , , = # O O $ 2 , 1 < < , ; % . # * = > , < < = $ & # O & , = , , , = , $ , # X   : W [ Q.Q._ E a ;.",
"l._./.Q.' ` T u & # , , 1 < , * $ # O + = 1 , ; < < , = + + @ $ $ = > , < , * $ @   $ $ = , < , > , * $ $ . X ; Y [ Q.Q.Q.W z 1.",
"B.g.Q A B e ; & + # * 1 1 , , $ # @ + @ = , , = 5 1 , = + + % * $ , = , , , = $ @   $ = $ = < , , , * $ * + X % C E _ _ W S o.2.",
"B.D._ ! P M 4 % . % * < < , , $ # @ O # = , > = 6 2 , ; # + & * $ $ = , < , $ = & O # # $ = 2 , , * * $ # % . # N I y q 4 y w @.",
"P.'.).Q._ T M ; + & , < < < , $ & O @ $ > > , = 2 , , * + + & # = $ = , < , $ + # . + & $ = , , * & * * % % O * S ( Q.Q.[ W Z 8 ",
"L.Q.[ _ / ) I q + & , < , , * $ * + + = , = & = , , $ @ @ O + # $ $ # , , , & @ O   O + & = , > * % * * + + + - A ) ].~.{ ' I 9 ",
"R.[ { [ ` [ T q + $ , < , 2 * & % + + & < < & * 6 , $ @ + + % % $ = + = , = $ + O     + & = $ , = + & & # % + & C _ ~.{ { _ I p ",
"F.[ [ { ~.[ Y 6 + = , 2 < < ; * % + + ; = < = = , , @ & + O + + $ @ O * , = & @ O     O + $ # $ # + + + + + X % u ) [ ` ( / I z ",
"F.[ ~.].~._ D q # * < < , , * @ + +   & < < & & , = % & + O + + + + O # = $ # +         + & * $ = + + +     X O y W [ [ [ _ D l ",
"F.Y.Q.Q.` E N 6 + # = < & .   o + # # * , , * + = & # $ & & 6 3 & + O + $ $ % + O % % % + + # & % + + O + ; 3 # 4 E ) [ { W M h ",
"F.Y.' ' _ T M 4 + 3 E E M r q q e a m N C Z q 4 6 6 6 t t A E ) W U N u q t q t e u Z A w 4 4 3 ; ; : 4 q N / P q N E Y P B 9 ;.",
"C.~ P E T V e = 4 P / ) ) _ _ ) _ ) _ _ _ ) W E E E R E E E ! ! _ ! ) ) / W W E W E ! E E E E W E E ) E E T E Y n 4 u a Z f :.x.",
"2.4.} X.X.} -.1.e.H c v O.w.t.t.y.4.a.3.t.9.o.k Z Z Z Z Z N N N A A Z Z V N V A V A A A Z Z G H H H H c G z F Z c  .} } <.6.2.N."
};
