/* XPM */
static char *out[] = {
/* columns rows colors chars-per-pixel */
"64 64 17 1 ",
"  c #95AE0A",
". c #97B10B",
"X c #99B50C",
"o c #9DBC0E",
"O c #A1BE0D",
"+ c #9EC10F",
"@ c #9FC210",
"# c #A3C30F",
"$ c #A9C60F",
"% c #A7C80F",
"& c #A9C90F",
"* c #A3C510",
"= c #A8C710",
"- c #A6C811",
"; c #AACA10",
": c #B1CE11",
"> c #B9D412",
/* pixels */
"o+#-#o#**--%---**-**@@@@@@@+#**%%$oo@@@@@@*-**-;-*-;%oo*##@@***#",
"@@*-oo@o@**--******@@@@@@@@@#*+#Ooo*@@@@@@***@*----#%;:#o@@@@++@",
"@@---##o@@+#***#*#@@@@@@@@@****-:#o#@@*@@@@**@@@*--**-$&#@@@@@@@",
"@@#*%oXo@@@@##@@@@@@@**+-@@@@@+#o*=;o--o@@@@@@@@**+*---#o@@@@@@@",
"@@*---#+@@@@@+@@@@@#o###%#+@@@@@@@-#-*Xo*o@@@%-@@@@*--*+o@@@@@@@",
"o@+**###@@@@+oo++@++#*%-#++@@@@@@@-#*O==**@@+#-@@@@@**o+@@@*@+@*",
"o#+o+#+o@@@oXXXX+#*+**%;+oo+@@@@@#--#**##o@+++*@@@@@@++@@@@O#O+&",
"##oo+oo+@@@@@@+++@%##%-*#%+++++o++*-##o.oo*--*#+@+ooooo+@@-O%o##",
"*ooXo@oooo+@@+++o@*---###XXoXoX.Xo+#-##-@*-=#*#+@oX..X.o@*****-*",
"@@@oXXX.XX+**-**@@**--##oo@ooXooo++*---;@@O$%**+ooXXXXXoo@#@*@**",
"*oooXoooXo@@*%--*@@+*@#*%o@@@@@@@@*-*#=;@@O%*#**@@oooo#+@*###@@@",
"#%o@@@@@@@@@#%%%##@@@@++o+@o@#o#@@%-=XO-o@*o@Xo=@@@***-O@**$%o@+",
"#o**@@*-###%**+ooo@@@@@#OoOo#%#+@@+%=o@o@oo@oo$-@@@-O*-o*--#o+#-",
"##---@**#o%%%-#oo@@@@@o%-*####-o@@@@%o@@@oo=oO-*@@**#**#**%%o@**",
"@*-%-##-#o#$#O%#o@@@@@@#%***#*-#o@@@+*@ooo#$=%--@@@@***@+*+%+@@@",
"o%%%%#+-%oO#OoO#*@@@@@@##+@@**##ooooooo*-*%#---*@oooooooooo++@@@",
"@%%#%O#$%X++o##%-**-*@@@@@@*#o+@@ooooo@+---*--*@oXXXX.X.XXXoo@@@",
"oO%##o#$oo#+o#&-%**-**-*@o+-Ooo+@oXXXoo+;=---**oXXXXXXXXXXXoo#+@",
"#ooOo++oo+#++#%---*-*-;-*oX-#X+#-..X.XX@;-*****o@ooXX.OO#oo**-*-",
"*+oo##+o+oXoo#*-*#**#*-*#=#++o%%$ X.X.X@*-+@@@@@@@XX O====*-#$-%",
"-+%###%#XXXXXo###+####@@%$=#*#-*###X.XX@o@@@o@@@@X.X.oOO%-*###-&",
"*#-O%%%#..XX..o++oooo+@@--=--**#-$OXXo@@*@@***@--@X....O--oo-oo-",
"*-$o#%#%O.X..o#++#o#++@@**-*-@#*#OXXXXoXoo**-*%#*@X.   XoXXX*#o#",
"+##XX#$o#X..o&%#O&&%#+@@@@@**@@**oOOooXXo#------=@o     Xooo*@@#",
"#*+XXXOOo#OX+&%##&&%#+@@@@@@o#@@@#@*#+o@o--;-#%##+o.  .X+#**#@@*",
"##@@oXX$%%%O+*-*#&%%*@@@+@@+O%**@**#*@@@*-#o$-#++@ooooo##%-###-#",
"#+@@oXo+%%%%%***@*##@@@o+#*+O---o--o-#@@*==X**oo++@=$#@@o%#*o$+O",
"+@@@#$%%####+@*@@@@@@++%#+@o%***o$*+#-@@@#Oo*o@@ooo%=%+@*o#*++#o",
"+@@@@#--%#@@++XooXooooo#@@@O-o-#@+@@@@@@@+#@#Oo@#$$#--*@o*oo##+@",
"-*@@@@**#%@@+XX...Xo@+#+******+@@@oooo@@@#**%#*@+%-=**@@@OoO#+=-",
"**+@@@@@+@@@+@+o+++@@+o%#--#*-*@@o.X.o@@@+**-==@+oO***@@@oO%#--%",
"+*-+@@@@++@@+@o+#+@@@o##o%o-o#@@@@@oo@@@@+#O*=@oXoo**-**@o##--#*",
"%+#@+XooXXo@@oOO@*@@@@@o**o@o@@@@oo#@@@@@@#+@@@*=-%#-***@ooo*#-#",
"@@@@oX.XXoo@@**%---*@@@@@@@@+oXoo+---@@@@@#+@@@@@oO####@@o%--#*o",
"@@@@@+#@*@@@@@oo#**@@@@@@@@o....o$%-**#**@o@@@@@o###%%*+@@+-#*+@",
"@@*@+*+-****@@@-**-*@@@@@@@@ooXXO$--*#-*+#*@-*@@@oXXooo##+*@@*@@",
"@@-*-*#---*--**@Xo-*@@@*+o#@@@@*+#:-#;--O-##*-@@X    Xo$%***@@@@",
"@@;%#+*---*----#o*#*@@+O#%-*#*+**#*o&;-oo--%--*oX....oo%%###@@@@",
"@#*-#@&-*+*-;-@@o*++O@##O%-#O$#*-#@o-**oO--=%;-*@oooo@@@*+##@@@*",
"+##++@@@@@@@@@@@**o#O#OOO#%-O;O##@@o@@@@oO##X$-o@@o*@@**#+-@@@*-",
"##oO#@@@@@@@@@@@@**#*-#=#X-#ooooooXXo#++++#%o++**o#-##*##@*@@@-#",
"-o#$#+@@@@@@@@@@*o@****@##oX.XX...XXX#*-#@@@*o#####--#*+#-@@@@-*",
"#*o#O+@@@@@@@##@*o*Oo@@#+o+oooXXXooo+##%%%#@+##@@--#*o#*+*@@@*-*",
"**ooo+@@@@%##--o**-o+#+##+@@@+@+@@@*%##%%%#+#o#*o=O@*@+@ooooo@##",
"-==-@@@@@@-%#-#+--#++#+o+@@*###+*-##%#$%ooo+o+*###*@@@@@oX.oo@**",
"%##-@@@@@@+##****##+@@@@@@+----+*-%o#%###oo@ooo#*#%-@@@@oooo@@*-",
"=oo-@@@o@@@#*@@@@+++@@@@@@#%%&%o--#ooO#O#O#+@o#+#o##o#+o@*o+@+#-",
"#ooXoXoXXo@@@@+*@@***@@@+++%#&%o%%#++o##O$%#*-*#+@o+###o#-%o@*@#",
"oooX....Xo@@@@*-#+*-**#*o@o#o#oo#Oo@@@+#;***--*%*@+#*#*##*-#%@@@",
"*@@ooooXXoooo---*#*-;%#**@#oooo+oo@@@@@#---*#*#--@+##*@****#%o@@",
"@@@@@+oooXXXo-##-#*#--&*@**@*+#*--@@++#+*-*#@*#*@@@*@@@##+++@*@@",
"@@++@**#oo@@*o#=-oo#o%%*@*#****--*ooXoXo+%*+++##@@@@*oo-+o+**o+@",
"+****-==o@@@@o#-*oo-Oo+@-;#-**----+ooooX++oooX++@@@@*#o##o**&oo@",
"+#----$=oooXXo@@@++%*o+@--@--@-%-;o@#+o#%oo%%##+@@@@+=###+*-#%-*",
"**;---=;oo. .o@@@+#+@@+#*@@=*@*-O##oo++%%o#%%%#+@@@@-=-%****=-#o",
"--;-+-%Ooooooooo#****@###@@*@@@*#oO#Oo#%%##%%-#+@@@@#*-%*#@**O**",
"--*;-@@o@@@@@ooo%-%##*#%+@@@@++X$$#%%oo%-#*-&-*@@@@@@@@oooo@@@@@",
"--X@*oo@@@@@oX..O&*o+##$#@@@@++#o#%#%#o%**@--*@@@@@@@@@X .o@@@@@",
":OX@ooXoooXooXX..O+oXXoO+@@@@@+XO#%#**##-@@@*@@@@@@@@@@+o+oo@@@@",
"-X@@oXX....XoXX..XX...Xo++@@+@#%$&%#*##+@@@*@@@@@@oXooo@+X..o@@@",
"*@@@@@@@ooooooo..X..Xo+oo+@@+%@----*@@@@@@@o###oo@oX.Xo@Oooo+%#o",
"o@@@@@@@@@oXo@@@++@+@@@@++@@#%+@**-*#@@@@@oO$&#o@@@@@@@@%O###%O#",
"@*@@@@@**-*o@*@*@--@@@@@@@@@+#+@@@@@@@@@o-:::&#--@@oooo-%$-#=#-O",
";o@*-@*;;:;*-;;-*;%-*@@@@@@+%+*--+@@@@@@*-;-:----*->=o@-#***o%-$"
};
