/* XPM */
static char *out[] = {
/* columns rows colors chars-per-pixel */
"64 64 208 2 ",
"   c #323B1B",
".  c #373728",
"X  c #3D342B",
"o  c #3D3532",
"O  c #791B0C",
"+  c #542B15",
"@  c #583917",
"#  c #72230E",
"$  c #652C12",
"%  c #772C14",
"&  c #663719",
"*  c #413D2B",
"=  c #5F3F2A",
"-  c #443D39",
";  c #473D38",
":  c #28411E",
">  c #0A4D25",
",  c #064F28",
"<  c #154922",
"1  c #164C26",
"2  c #025326",
"3  c #0A5426",
"4  c #035927",
"5  c #025628",
"6  c #0D5628",
"7  c #025C2A",
"8  c #095C2A",
"9  c #155C27",
"0  c #16582C",
"q  c #275728",
"w  c #02632E",
"e  c #0B642D",
"r  c #07682E",
"t  c #0C6A2F",
"y  c #13632B",
"u  c #1B612C",
"i  c #146A2E",
"p  c #196829",
"a  c #026630",
"s  c #0A6630",
"d  c #026C33",
"f  c #0C6C32",
"g  c #1A6F34",
"h  c #017236",
"j  c #0B7637",
"k  c #027638",
"l  c #037B3A",
"z  c #177B38",
"x  c #256727",
"c  c #2B6D25",
"v  c #38662A",
"b  c #26742A",
"n  c #29762A",
"m  c #387625",
"M  c #276930",
"N  c #346E35",
"B  c #277D3C",
"V  c #46431E",
"C  c #577B1E",
"Z  c #6C761D",
"A  c #484C28",
"S  c #544A28",
"D  c #465628",
"F  c #5A5728",
"G  c #585C2C",
"H  c #4B423D",
"J  c #5C4539",
"K  c #575B3B",
"L  c #6E5129",
"P  c #596026",
"I  c #427B24",
"U  c #487C25",
"Y  c #496531",
"T  c #526F33",
"R  c #636726",
"E  c #6E7526",
"W  c #767E36",
"Q  c #035950",
"!  c #2E4C44",
"~  c #15714D",
"^  c #056159",
"/  c #166A59",
"(  c #2A744C",
")  c #0B7365",
"_  c #06776B",
"`  c #117660",
"'  c #4D4541",
"]  c #524A45",
"[  c #594C47",
"{  c #564E49",
"}  c #55544A",
"|  c #5B524D",
" . c #455B54",
".. c #5D5550",
"X. c #6A5648",
"o. c #795B46",
"O. c #615752",
"+. c #645A55",
"@. c #685C57",
"#. c #695E59",
"$. c #4B615A",
"%. c #6A615D",
"&. c #69695D",
"*. c #496C66",
"=. c #6C6660",
"-. c #746B66",
";. c #766C66",
":. c #7B726B",
">. c #940E05",
",. c #8A1509",
"<. c #96170B",
"1. c #911E10",
"2. c #A60D06",
"3. c #A4170A",
"4. c #BE2809",
"5. c #C12607",
"6. c #8A4E17",
"7. c #907012",
"8. c #AC6D0F",
"9. c #8C5020",
"0. c #9D5A2A",
"q. c #8A5C3B",
"w. c #95762A",
"e. c #996838",
"r. c #03823E",
"t. c #07853F",
"y. c #588A1E",
"u. c #5E911E",
"i. c #768418",
"p. c #798C1B",
"a. c #69971C",
"s. c #7F951C",
"d. c #729E1D",
"f. c #7BA71A",
"g. c #548622",
"h. c #538A25",
"j. c #5C8D28",
"k. c #5B9228",
"l. c #4A8F33",
"z. c #798626",
"x. c #639421",
"c. c #6B9C27",
"v. c #709D20",
"b. c #75A522",
"n. c #78AB2E",
"m. c #74AA31",
"M. c #038641",
"N. c #048C44",
"B. c #098B46",
"V. c #198942",
"C. c #049247",
"Z. c #0C9346",
"A. c #049549",
"S. c #0B964B",
"D. c #039C4D",
"F. c #0A9C4D",
"G. c #12964B",
"H. c #039F50",
"J. c #3F8040",
"K. c #2A8A5E",
"L. c #03A14F",
"P. c #02A451",
"I. c #06847A",
"U. c #4D8F4B",
"Y. c #548F41",
"T. c #899C1B",
"R. c #9A9810",
"E. c #A29612",
"W. c #95AD0A",
"Q. c #99A80E",
"!. c #97B10B",
"~. c #99B40C",
"^. c #9DBC0E",
"/. c #85A815",
"(. c #83AC1C",
"). c #98A615",
"_. c #8DB415",
"`. c #88B019",
"'. c #96B713",
"]. c #96BB15",
"[. c #9CBE11",
"{. c #93B91A",
"}. c #9CBC19",
"|. c #A1BE0E",
" X c #A2BE11",
".X c #A3BF1A",
"XX c #859922",
"oX c #999422",
"OX c #85AE28",
"+X c #8AB322",
"@X c #91BA22",
"#X c #9EC00F",
"$X c #9FC210",
"%X c #9FC218",
"&X c #A3C20F",
"*X c #A9C50E",
"=X c #A7C80F",
"-X c #ABCA0F",
";X c #A3C510",
":X c #A9C610",
">X c #A6C811",
",X c #ABCA11",
"<X c #A6C71D",
"1X c #B1CE12",
"2X c #B4D112",
"3X c #BBD513",
"4X c #09978A",
"5X c #089D90",
/* pixels */
"~.~.;X;X>X>X>X;X=X$X$X$X$X;X>X>X,X1X;X$X$X^.&X$X$X^.^.~.~.~.~.^.^.^.$X;X;X;X;X>X>X,X;X$X$X$X,X1X,X>X>X;X;X;X#X#X^.!.!.!.!.!.!.~.",
"~.^.$X$X>X>X>X>X;X;X$X$X$X$X#X;X;X;X;X>X,X,X^.$X$X$X[.$X[.$X&X#X$X$X;X;X>X=X;X1X,X,X,X&X$X$X^.,X2X;X;X;X;X#X$X$X$X^.^.^.^.^.#X#X",
"$X$X$X$X$X=X-X>X>X>X=X$X$X$X$X$X$X$X$X^.^.^.^.$X$X$X#X#X$X$X$X$X$X$X$X;X>X;X;X~.&X1X,X#X$X$X^.^.^.;X;X^.;X$X$X$X$X$X$X$X$X$X$X,X",
";X;X;X>X;X;X=X-X-X=X-X=X$X$X$X$X$X$X$X$X&X$X#X$X$X$X$X$X;X&X#X#X$X$X$X&X,X>X:X;X^.^.|.#X$X$X;X$X$X$X^.!.;X$X$X$X$X$X;X;X#X$X$X>X",
"=X;X;X>X>X;X=X$X=X~.^.#X$X$X$X$X$X$X$X$X&X~.~.#X#X^.^.=X;X^.[.[.$X$X^.&X&X1X,X;X$X$X^.$X$X$X$X;X$X$X~.~.3X;X$X$X$X$X,X2X^.#X;X>X",
"#X>X;X=X=X>X>X^.^.&X^.^.$X$X$X$X$X$X$X#X&X,X|.|.:X=X&X>X;X X+Xh.l.h._.*X;X|.1X;X$X$X$X$X^.^.^.^.$X#X!.,X,X,X$X$X$X$X;X;X1X^.;X>X",
"^.=X>X>X;X-X,X;X^.~.#X$X$X$X$X$X$X$X;X^.,X;X&X;X;X&X>X;X;Xa.V.F.D.D.t.d.}.[.~.;X$X$X$X#X^.&X,X;X;X#X~.2X,X>X$X$X$X$X$X;X;X=X;X>X",
"^.~.-X>X>X&X=X,X=X#X~.$X$X$X$X$X$X$X$X;X;X$X=X=X$X].@X].{.B D.P.B % A z p a.$X[.$X$X$X$X$X#X^.,X2X,X&X;X>X>X$X$X$X$X$X$X;X$X=X>X",
"^.#X^.-X=X^.~.=X*X#X#X$X$X$X$X$X$X$X#X(.b.'.&X^.x.n G.t.b d r.C.N 3.D P.L.z f.}.&X$X$X^.:X,X;X&X;X2X>X>X>X;X$X$X$X$X$X$X;X;X$X;X",
"^.#X^.~.-X=X^.~.^.-X$X$X$X$X;X$X#X$Xk.t.S.p f./.p l F.L.N.l l l j g F.P.P.S.t.m _.#X~.:X,X>X,X>X;X=X2X>X>X;X$X#X^.^.^.^.^.~.~.^.",
"^.#X;X#X~.^.3X,X&X,X1X$X$X$X2X;X#X_.y C.P.B & x r.l h N.L.L.L.P.P.P.P.P.P.P.L.G.b h.k.n x.>X>X>X>X>X;X>X>X$X~.~.~.!.~.~.~.!.!.~.",
"^.$X#X#X#X^.1X,X=X&X,X,X$X>X,X1X#Xa.r l t.S 2.D P.P.P.P.P.P.P.P.P.P.P.L.A.t.t.L.H.A.N.F.f ].;X>X>X>X;X;X$X^.~.~.~.~.~.!.~.~.~.!.",
"$X$X$X$X$X$X$X,X>X>X>X;X;X;X>X,X(.t A.M.h k f k t.A.P.P.P.P.P.L.P.P.D.l h j t.P.P.P.P.C.d x.%X;X>X,X>X;X$X$X^.^.^.^.^.^.^.^.~.~.",
"$X$X$X$X$X$X$X;X,X>X>X>X=X$X;X$Xm k D.L.L.D.D.L.L.L.A.L.D.L.P.N.r.D.l h : % t.L.P.P.H.l k B.b n c.;X;X$X#X$X$X$X^.[.|.~.!.~.~.|.",
"$X#X#X^.#X#X#X=X,X>X>X>X>X;X>Xh.d h h r.N.D.P.P.L.P.D.N.Z.F.L.P.C.l h r.S 1.Y P.P.D.l M.A.P.D.A.f d.$X$X$X$X$X$X$X^.!.~.~.!.&X,X",
"~.~.~.~.~.#X$X2X>X>X;X$X#X%X_.i r.h l l h h C.D.C.L.A.L.B & v L.L.D.D.L.G.G.L.L.P.P.P.L.L.D.D.N.l h.$X$X$X$X$X$X^.~.~.~.!.~.=X,X",
"~.!.!.~.~.~.$X$X;X;X;X$X[.I f A.L.D.D.D.C.N.~ l r.l h l A 2.$ A.D.N.P.D.D.P.P.P.P.P.P.N.M.l C.D.G.g.$X$X;X;X$X;X^.!.~.!.~.~.~.!.",
"~.~.~.~.!.~.^.~.$X$X[.^.d.t h l L.L.P.P.P.P.P.L.P.N.h k h y t h h h M.l N.D.M.H.P.P.P.P.P.P.P.A.j x.$X$X;X;X,X;X^.!.~.!.~.!.~.!.",
"!.~.~.!.!.W.^.-X^.$X^.~.u d h h h B.p % V t.N.l l h h C.l l h h l r.l C.P.N.k k N.P.L.Y D Z.C.l l s f.;X,X,X1X:X^.~.~.!.~.!.~.W.",
"!.~.!.~.!.^.-X-X&X$X|.;Xj.8 w d h h x <.# h h h h h h l D.D.D.D.A.P.P.P.P.P.D.M.k l l 1.,.i l C.l 7 m ;X,X:X&X;X[.^.^.W.W.W.W.W.",
"|.!.!.!.~.&X=X;X=X^.=X;X;Xx 5 d f 0 8 q u h d r w w d h k t.A.L.F N F.P.P.D.L.P.A.M.t.q q t.C.N.4 2 g.;X;X,X3X,X~.#X~.W.W.Q.W.W.",
"*X=X~.~.&X=X>X,X=X^.;X;X:Xy.2 4 $ >.  4 7 h d 4 2 2 w d h h h ~ 2.<.g A.N.l N.D.D.H.P.P.P.L.D.s 4 m ;X;X,X1X&X^.#X~.!.W.W.W.W.W.",
"=X=X-X^.^.&X>X>X>X^.;X>X;Xd.2 2 + + 1 7 2 7 d h w 2 2 4 4 4 a a 0 u a 7 d h h h k l M.F.M.r.h d 8 <X-X|.#X#X#X$X#X=X#X#X^.#X!.~.",
"=X=X>X>X^.&X>X>X;X$X;X>X;Xm 4 4 5 7 7 5 5 d h h h r 7 4 4 4 d h h h d 7 4 5 7 r h h h d d h h d 8 (.:X,X^.^.#X$X#X#X#X~.#X#X#X#X",
"=X;X>X>X=X$X>X;X;X$X$X$X;Xv.7 d h d h a 2 7 d d h h h d h h h h h h d d d a 7 d d d a 7 d h 4 4 9 }.#X#X^.;X$X$X#X$X$X1X-X|.$X$X",
";X;X>X;X;X$X$X=X;X$X$X$X$X[.c 5 5 w d h a w a a d h h h h h h h w 7 2 2 5 d h d d s & $ 0 s 2 y.`.$X$X$X$X#X$X^.^.$X#X,X,X1X^.$X",
"&X;X=X$X$X$X$X#X$X#X#X#X^._.8 2 2 2 7 w r 7 < > 2 7 d h h h h h 7 2 2 2 2 w d d d s # >.: 2 2 j.$X#X$X$X$X$X$X;X>X#X^.=X>X>X,X&X",
";X$X$X$X#X^.~.~.~.~.~.~.!.g.8 d 2 2 2 2 2 , <.# 7 7 d d s a h s s s 5 2 2 2 2 5 2 > < < 2 7 4 c %X,X|.~.^.$X$X,X,X1X,X=X;X,X;X$X",
">X>X;X$X$X^.~.~.~.~.!.~.~./.9 7 d a 7 4 2 > ,.O 3 7 a a 7 7 g 3.,.q d 7 2 2 2 2 4 @ ,.  4 d 4 c >X,X3X,X#X$X$X;X2X>X>X>X;X;X;X$X",
"$X#X$X$X$X#X#X^.^.~.^.^.^.#Xu.2 d d h d 5 2 > > 2 2 2 2 5 d f O O y h h a d h h d V O q s 8 m (.$X^. X;X;X$X$X$X,X;X>X>X>X;X$X$X",
"$X$X$X$X$X$X$X$X^.#X$X$X#X$Xu.2 2 2 2 4 2 2 w a 5 2 7 a d h h d s h h d h h h h h 7 , 5 9 x.$X;X>X;X1X=X$X$X#X^.~.~.#X$X$X>X>X$X",
"$X$X$X$X$X$X$X^.^.>X;X$X$X$X_.I 9 m u 3 2 2 d a a d d h h h d d 7 5 d d h h d s 7 3 2 x '.$X;X^.;X$X&X&X$X^.~.^.&X#X;X;X>X>X>X>X",
"^.^.$X$X$X$X$X^.^.&X;X;X;X$X$X[.].].[.d.U I 9 8 3 4 w d a a 2 2 , , 2 3 8 5 2 c a.k.a.].#X#X;X#X$X#X$X$X$X$X2X2X>X>X;X;X:X;X,X;X",
"~.~.$X$X$X$X$X^.,X,X,X;X>X;X$X$X&X$X#X$X#X#X[._.m 3 2 > 2 , 1 0 , 2 6 T OXm a.}.$X$X#X#X$X#X,X>X$X$X;X$X$X$X$X;X=X~.^.,X;X;X,X;X",
"^.$X$X$X$X$X$X$X=X>X>X>X>X>X;X$X#X#X$X$X#X#X$X$X[.f.C . p.i.H &.o  .&.z.>X>X;X;X$X$X$X$X$X$X>X^.$X$X$X$X$X$X$X$X~.^.=X;X$X&X,X;X",
"$X$X$X$X$X$X$X~.~.^.;X;X;X;X;X$X#X#X$X$X$X;X$X$X=X#X/.. R i.H ;.' -.O.XX;X>X;X;X$X;X;X$X$X$X=X$X$X$X$X$X$X$X#X$X$X,X;X;X^.2X,X$X",
";X$X;X$X$X$X$X$X;X;X;X;X>X>X;X;X$X$X$X$X$X$X$X$X$X$X[.P X Z H ;.- -...M b.}.f.[.;X>X>X;X;X$X$X#X;X;X$X$X$X$X$X$X$X^.^.$X#X;X$X[.",
">X;X>X;X$X$X$X$X;X$X^.^.;X>X;X;X$X$X$X$X$X$X$X#X$X$X|.`.* A ; :.' =.} 0 r t e b.>X>X>X;X>X;X;X;X;X>X>X$X$X$X^.~.!.!.!.W.!.~.^.^.",
">X;X=X>X>X;X$X;X$X$X~.|.;X,X;X$X$X$X$X$X^.#X^.;X;X;X;X[.G ; o ;.' %.{ v 1 6 3 d.;X,X;X&X>X>X>X;X$X>X>X;X$X$X~.!.!.W.W.!.W.!.~.^.",
"1X$X>X>X,X,X,X2X,X&X^.,X1X;X#X$X$X$X#X^.^.,X,X,X;X;X;X;Xp.H o ;.{ %.X.v.A a.{._.,X>X^.=X>X>X;X>X;X,X>X>X;X$X~.!.W.!.!.W.!.!.#X^.",
"#X$X>X2X2X2X$X;X;X$X$X$X$X$X;X$X$X$X$X;X:X;X:X,X>X=X$X=X[.G | -.{ =.{ G s.|.1X,X;X$X$X&X>X;X;X>X,X1X2X,X,X$X^.^.~.^.~.^.^.^.$X$X",
"$X$X$X$X=X$X$X$X$X$X$X$X#X;X^.;X^.;X;X|.^.^.;X,X,X;X;X#X,XE ] =.| %.{ G [.$X&X$X;X$X[.|.>X#X;X>X;X,X|.1X>X$X$X$X$X$X[.;X;X$X$X$X",
"$X$X$X$X$X$X$X$X$X$X#X;X,X^.=X=X^.>X1X^.&X|.&X~.2X,X^.#X;XZ H #...=.] W [.$X$X$X$X$X&X~.,X^.=X,X&X*X^.;X$X$X$X$X$X[.&X;X$X$X;X;X",
"$X$X$X$X$X$X$X$X$X$X$X>X>X;X>X^.;X>X&X=X:X|.|.|.,X;X$X$X[.Z H #.| O.' E ^.^.^.;X$X$X$X^.$X#X|.2X|.|.$X$X;X$X$X$X[.&X,X=X;X;X$X>X",
"$X$X$X$X$X$X$X$X$X$X$X;X;X;X;X>X>X;X;X;X;X:X,X|.$X^.~.~.Q.Z ; #.| ..' R '.!.~.;X;X;X$X$X$X$X#X$X$X$X$X^.,X=X;X#X$X&X&X>X>X;X#X>X",
"$X$X$X$X$X$X$X$X$X$X$X$X#X$X$X#X$X;X;X$X;X^.^.&X$X~.~.~.R.S o @.....] G '.~.[.;X>X>X>X>X;X;X$X$X$X$X$X#X#X&X$X;X^.,X>X>X>X;X^.>X",
"$X$X#X$X$X$X;X#X$X$X;X,X~.=X,X^.$X$X;X$X&X&X;X^.#X^.^.~.oXq.= X.+.| ' G ~.[.;X$X;X,X=X>X>X>X=X$X$X$X&X,X;X;X$X$X^.,X;X;X;X$X^.,X",
"$X;X$X$X$X=X,X^.#X#X>X;X;X>X:X^.$X$X;X;X;X,X^. X=X#X#X#X'.9.9.X.@.] ' K n.;X;X;X$X;X-X-X-X=X=X$X$X^.,X#X$X$X$X;X|.;X|.;X=X$X#X&X",
"$X1X2X^.$X;X>X=X^.;X>X>X>X1X|.$X$X$X&X;X&X^.$X$X$X$X$X$X XF L J %.H '  .5Xn.;X<X>X;X;X;X=X~.^.#X$X$X^.&X;X$X;X;X;X$X[.&X$X$X$X$X",
"$X>X>X,X^.;X>X>X;X>X>X>X&X&X[.$X=X;X;X;X;X^.$X$X$X;X>X;X).J [ ; %.] ] $.5XK.n.OX;X;X$X[.^.#X^.#X$X^.=X;X;X;X;X;X;X;X;X;X$X$X$X$X",
"$X$X#X>X&X;X>X$X;X;X;X;X,X;X^.$X$X$X$X#X$X$X$X$X;X;X>X;Xw.q.O.' =.+.] *.5XI.) / c.( J.>X^.~.^.$X$X$X|.&X;X&X>X&X[.=X=X;X;X$X$X$X",
"$X$X#X>X;X$X;X=X$X$X$X;X&X&X#X$X$X$X$X&X$X$X$X$X;X>X;X,XR ; | | :...{ *.4X5X4X4X_ I.) OX;X#X^.$X$X^.&X;X|.=X;X^.,X^.:X;X$X$X$X$X",
"$X$X$X=X;X$X$X$X$X$X$X$X;X$X$X$X[.#X&X&X$X$X$X$X^.,X$Xz.X | ] %.:.+.{ =.! ` 4X_ I.I.^ ` ( OX;X$X$X$X$X$X^.,X$X|.$X^.;X;X^.^.^.#X",
"^.#X$X$X$X$X$X$X$X$X$X$X#X;X;X$X;X|.).).'.$X$X|.R.6.7.X L o...#.:.%.#.q.e./ _ _ ` / ^ ^ Q Q +X&X$X;X2X;X#X;X$X;X$X$X$X^.,X&X#X,X",
"^.$X$X$X$X$X#X#X;X>X;X$X;X;X;X>X=X X5.3.7.^.#X[.4.2.6.Z w.9.o O.:.#.e.0.e.` U.) U.Y./ Y.( c.%X>X$X,X,X,X;X$X,X;X$X$X#X>X;X&X=X;X",
"$X$X$X$X$X#X;X,X>X;X;X;X;X>X>X>X=X-X8.7.).&X&X[.E.7.R.~.).T.D +.:.+.e.oXoXm.@Xl.m.}.{.;X%X;X;X>X;X;X;X,X$X,X2X,X$X$X;X;X;X;X;X;X",
"^.^.^.#X^.;X>X>X>X;X;X>X;X>X>X>X,X,X3X:X;X$X;X;X;X#X^.#X^.[./.| :.z.}.}.|.$X$X$X#X#X$X=X;X;X>X;X;X=X>X>X>X>X;X>X$X$X;X>X;X;X$X$X",
"~.~.!.~.;X,X,X,X&X>X>X>X$X>X;X;X,X1X~.;X$X$X#X;X>X$X;X;X X;X.XK W $X;X$X#X;X$X$X#X#X;X2X>X;X;X;X#X;X;X$X=X>X#X$X$X#X$X;X$X$X$X$X",
"^.^.^.^.;X[.$X^.=X,X>X;X$X$X>X^.=X,X2X$X$X#X$X>X;X$X>X;X;X;X;XT..X1X;X$X#X^.^.^.^.^.#X=X;X>X;X;X$X;X$X$X;X;X$X$X$X$X$X$X$X$X$X$X",
"$X$X$X$X$X&X#X~.1X;X>X;X^.$X>X&X^.>X,X$X$X,X;X>X;X;X>X;X;X;X>X;X>X;X%X^.~.~.~.~.~.!.!.^.$X$X$X#X#X#X^.[.=X;X$X$X$X$X$X$X$X&X~.#X",
"$X$X$X$X$X$X^.,X>X>X;X;X~.^.>X,X^.^.#X;X$X,X1X1X$X>X>X$X;X;X>X>X,X,X$X$X#X#X^.^.~.~.~.|.&X#X^.!.^.^.~.^.$X$X$X$X$X$X$X$X$X>X&X~.",
"$X$X[.^.^.#X^.;X;X$X$X$X#X^.=X1X$X^.#X$X$X;X2X;X;X,X>X>X;X>X>X>X>X,X>X&X$X$X$X$X#X~.=X-X^.#X^.&X-X^.=X^.#X$X$X$X$X$X$X$X$X,X>X=X",
"^.~.!.!.!.~.$X$X$X$X$X$X^.^.>X=X$X$X$X$X$X$X$X$X$X,X,X;X$X;X2X;X>X,X,X^.$X$X$X$X^.&X,X-X#X^.&X=X=X&X-X-X^.$X$X;X$X$X$X$X;X|.2X,X",
"~.W.!.W.W.!.#X$X$X$X#X$X#X^.;X$X$X$X$X$X;X$X$X$X$X;X,X;X$X;X;X2X&X;X,X&X~.^.$X$X^.-X>X;X=X^.=X=X=X=X=X-X^.$X$X$X$X$X$X$X;X2X-X,X"
};
